<?xml version="1.0" encoding="utf-8"?>
<!-- Generator: Adobe Illustrator 23.1.1, SVG Export Plug-In . SVG Version: 6.00 Build 0)  -->
<svg version="1.1" id="Capa_1" xmlns="http://www.w3.org/2000/svg" xmlns:xlink="http://www.w3.org/1999/xlink" x="0px" y="0px"
	 viewBox="0 0 20 18.9" style="enable-background:new 0 0 20 18.9;" xml:space="preserve">
<style type="text/css">
	.st0{fill:#999999;}
</style>
<title>fb-icon</title>
<path class="st0" d="M18,9.5c0-4.4-3.6-8-8-8s-8,3.6-8,8c0,3.9,2.9,7.2,6.7,7.9v-5.6h-2V9.5h2V7.7c-0.2-1.6,1-3,2.5-3.1
	c0.2,0,0.3,0,0.5,0c0.6,0,1.2,0.1,1.8,0.2v2h-1c-0.6-0.1-1.2,0.4-1.3,1c0,0.1,0,0.2,0,0.3v1.5h2.2l-0.4,2.3h-1.8v5.6
	C15.2,16.8,18,13.5,18,9.5z"/>
</svg>
