<?xml version="1.0" encoding="utf-8"?>
<!-- Generator: Adobe Illustrator 23.1.1, SVG Export Plug-In . SVG Version: 6.00 Build 0)  -->
<svg version="1.1" id="Capa_1" xmlns="http://www.w3.org/2000/svg" xmlns:xlink="http://www.w3.org/1999/xlink" x="0px" y="0px"
	 viewBox="0 0 20 18.9" style="enable-background:new 0 0 20 18.9;" xml:space="preserve">
<style type="text/css">
	.st0{fill:#999999;}
	.st1{fill-rule:evenodd;clip-rule:evenodd;fill:#999999;}
</style>
<g>
	<path class="st0" d="M87.5,25.9c-1.1,0-2.2,0-3.4-0.1c-0.9,0-1.9-0.2-2.7-0.6c-1.1-0.6-1.8-1.6-2-2.8c-0.1-0.7-0.2-1.5-0.2-2.2
		c0-1.5,0-3.1,0-4.7c0-0.8,0.1-1.6,0.3-2.4c0.5-1.5,1.6-2.4,3.2-2.8c0.8-0.1,1.7-0.1,2.5-0.1c1.6,0,3.3,0,4.9,0
		c0.9,0,1.7,0.1,2.6,0.3c1.6,0.6,2.6,1.6,2.9,3.1c0.1,0.7,0.2,1.5,0.2,2.2c0,1.5,0,3.1,0,4.7c0,0.8-0.1,1.6-0.3,2.4
		c-0.5,1.5-1.6,2.4-3.2,2.8c-0.8,0.2-1.6,0.2-2.5,0.2C89,25.9,88.3,25.9,87.5,25.9L87.5,25.9z M94.4,17.9L94.4,17.9
		c-0.1-0.7,0-1.4-0.1-2c0-0.7-0.1-1.4-0.1-2c-0.1-0.9-0.7-1.7-1.6-2.1c-0.5-0.2-1-0.3-1.6-0.3c-1.5,0-3-0.1-4.5-0.1
		c-0.9,0-1.9,0-2.8,0.1c-1.4,0.2-2.3,1-2.6,2.3c-0.1,0.5-0.1,1.1-0.2,1.7c0,1.1-0.1,2.2,0,3.3c0,1,0,1.9,0.1,2.9
		c0.1,1.3,1,2.2,2.3,2.5c0.7,0.2,1.5,0.1,2.3,0.2c1.4,0,2.7,0,4.1,0c0.6,0,1.3-0.1,1.9-0.1c0.6-0.1,1.1-0.2,1.6-0.6
		c0.8-0.6,1-1.4,1.1-2.3C94.3,20.1,94.4,19,94.4,17.9z"/>
	<path class="st0" d="M87.6,22c-2.3,0-4.2-1.8-4.2-4c-0.1-2.3,1.9-4.1,4.2-4.1c2.3,0,4.2,1.8,4.2,4C91.9,20.2,90,22.1,87.6,22z
		 M87.6,15.4c-1.4,0-2.7,1.2-2.7,2.6s1.2,2.6,2.7,2.6s2.7-1.2,2.7-2.6C90.4,16.6,89.2,15.4,87.6,15.4z"/>
	<path class="st0" d="M93,13.8c0,0.6-0.4,1-1,1c-0.6,0-1-0.4-1-0.9c0-0.6,0.4-1,1-1C92.6,12.9,93,13.3,93,13.8z"/>
</g>
<path class="st1" d="M10,1.4c4.5,0,8.1,3.6,8.1,8.1c0,4.5-3.6,8.1-8.1,8.1c-4.5,0-8.1-3.6-8.1-8.1C1.9,5,5.5,1.4,10,1.4z M8.1,5h3.8
	c1.4,0,2.6,1.2,2.6,2.5v3.8c0,1.4-1.2,2.5-2.6,2.5H8.1c-1.4,0-2.6-1.1-2.6-2.5V7.6C5.5,6.2,6.7,5,8.1,5z M10,7.1
	c1.4,0,2.5,1.1,2.5,2.5s-1.1,2.5-2.5,2.5s-2.5-1.1-2.5-2.5S8.6,7.1,10,7.1z M10,7.9c0.9,0,1.7,0.7,1.7,1.7c0,0.9-0.7,1.7-1.7,1.7
	c-0.9,0-1.7-0.7-1.7-1.7C8.3,8.6,9.1,7.9,10,7.9z M12.4,6.7c0.2,0,0.4,0.2,0.4,0.4c0,0.2-0.2,0.4-0.4,0.4c-0.2,0-0.4-0.2-0.4-0.4
	C12,6.9,12.2,6.7,12.4,6.7z M8.4,5.7h3.2c1.2,0,2.2,1,2.2,2.1v3.2c0,1.2-1,2.1-2.2,2.1H8.4c-1.2,0-2.2-1-2.2-2.1V7.9
	C6.3,6.7,7.2,5.7,8.4,5.7z"/>
</svg>
