<?xml version="1.0" encoding="utf-8"?>
<!-- Generator: Adobe Illustrator 23.1.1, SVG Export Plug-In . SVG Version: 6.00 Build 0)  -->
<svg version="1.1" id="Capa_1" xmlns="http://www.w3.org/2000/svg" xmlns:xlink="http://www.w3.org/1999/xlink" x="0px" y="0px"
	 viewBox="0 0 20 18.9" style="enable-background:new 0 0 20 18.9;" xml:space="preserve">
<style type="text/css">
	.st0{fill-rule:evenodd;clip-rule:evenodd;fill:#999999;}
</style>
<path class="st0" d="M10,1.4c4.5,0,8.1,3.6,8.1,8.1c0,4.5-3.6,8.1-8.1,8.1c-4.5,0-8.1-3.6-8.1-8.1C1.9,5,5.5,1.4,10,1.4z M9,7.8h1.7
	v0.8h0c0.2-0.4,0.8-0.8,1.6-0.8c1.8,0,2.1,1.1,2.1,2.5v2.9h-1.7v-2.6c0-0.6,0-1.4-0.9-1.4c-0.9,0-1,0.7-1,1.4v2.6H9L9,7.8L9,7.8z
	 M7.8,6.3c0,0.5-0.4,0.9-0.9,0.9C6.4,7.2,6,6.8,6,6.3c0-0.5,0.4-0.9,0.9-0.9C7.4,5.4,7.8,5.8,7.8,6.3z M6,7.8h1.8v5.4H6V7.8z"/>
</svg>
