<?xml version="1.0" encoding="utf-8"?>
<!-- Generator: Adobe Illustrator 23.1.1, SVG Export Plug-In . SVG Version: 6.00 Build 0)  -->
<svg version="1.1" id="Capa_1" xmlns="http://www.w3.org/2000/svg" xmlns:xlink="http://www.w3.org/1999/xlink" x="0px" y="0px"
	 viewBox="0 0 20 18.9" style="enable-background:new 0 0 20 18.9;" xml:space="preserve">
<style type="text/css">
	.st0{fill-rule:evenodd;clip-rule:evenodd;fill:#999999;}
</style>
<path class="st0" d="M10,1.4c4.5,0,8.1,3.6,8.1,8.1s-3.6,8.1-8.1,8.1s-8.1-3.6-8.1-8.1S5.5,1.4,10,1.4z M14.1,7.8
	c0,0-0.1-0.6-0.3-0.8c-0.3-0.3-0.7-0.3-0.8-0.4C11.8,6.5,10,6.5,10,6.5h0c0,0-1.8,0-2.9,0.1c-0.2,0-0.5,0-0.8,0.4
	C6,7.2,5.9,7.8,5.9,7.8S5.8,8.5,5.8,9.1v0.6c0,0.7,0.1,1.4,0.1,1.4s0.1,0.6,0.3,0.8c0.3,0.3,0.7,0.3,0.9,0.4
	c0.7,0.1,2.8,0.1,2.8,0.1s1.8,0,2.9-0.1c0.2,0,0.5,0,0.8-0.4c0.3-0.3,0.3-0.8,0.3-0.8s0.1-0.7,0.1-1.4V9.1
	C14.2,8.5,14.1,7.8,14.1,7.8L14.1,7.8L14.1,7.8L14.1,7.8z M9.1,10.5V8.2l2.3,1.2L9.1,10.5z"/>
</svg>
