<?xml version="1.0" encoding="UTF-8"?>
<svg id="Layer_2" data-name="Layer 2" xmlns="http://www.w3.org/2000/svg" viewBox="0 0 240 240">
  <defs>
    <style>
      .cls-1 {
        fill: #e8de34;
      }

      .cls-2 {
        fill: #171f73;
      }

      .cls-3 {
        fill: #8d8674;
      }

      .cls-4 {
        fill: #c8bb53;
      }

      .cls-5 {
        fill: #cfc84c;
      }

      .cls-6 {
        fill: #cec849;
      }

      .cls-7 {
        fill: #c3bd54;
      }

      .cls-8 {
        fill: #f5ea44;
      }

      .cls-9 {
        fill: #ccc59e;
      }

      .cls-10 {
        fill: #e5da3a;
      }

      .cls-11 {
        fill: #ccc14a;
      }

      .cls-12 {
        fill: #e2d83c;
      }

      .cls-13 {
        fill: #c5be4f;
      }

      .cls-14 {
        fill: #ccc54c;
      }

      .cls-15 {
        fill: #fef511;
      }

      .cls-16 {
        fill: #7f8778;
      }

      .cls-17 {
        fill: #5c578c;
      }

      .cls-18 {
        fill: #beb95b;
      }

      .cls-19 {
        fill: #1b207b;
      }

      .cls-20 {
        fill: #c1b856;
      }

      .cls-21 {
        fill: #d6cc46;
      }

      .cls-22 {
        fill: #b6b251;
      }

      .cls-23 {
        fill: #181c6d;
      }

      .cls-24 {
        fill: #cdc450;
      }

      .cls-25 {
        fill: #171c71;
      }

      .cls-26 {
        fill: #c1b84f;
      }

      .cls-27 {
        fill: #c9252b;
      }

      .cls-28 {
        fill: #171b76;
      }

      .cls-29 {
        fill: #d1222c;
      }

      .cls-30 {
        fill: #fcf11c;
      }

      .cls-31 {
        fill: #9f9b6b;
      }

      .cls-32 {
        fill: #d9d046;
      }

      .cls-33 {
        fill: #1b1d71;
      }

      .cls-34 {
        fill: #d6cf48;
      }

      .cls-35 {
        fill: #c0b769;
      }

      .cls-36 {
        fill: #ece333;
      }

      .cls-37 {
        fill: #bcbd5b;
      }

      .cls-38 {
        fill: #1b207a;
      }

      .cls-39 {
        fill: #c8bf4b;
      }

      .cls-40 {
        fill: #1f1f66;
      }

      .cls-41 {
        fill: #b9b457;
      }

      .cls-42 {
        fill: #b3b060;
      }

      .cls-43 {
        fill: #b1a872;
      }

      .cls-44 {
        fill: #d8ce48;
      }

      .cls-45 {
        fill: #15176d;
      }

      .cls-46 {
        fill: #dcd442;
      }

      .cls-47 {
        fill: #020468;
      }

      .cls-48 {
        fill: #d43539;
      }

      .cls-49 {
        fill: #b6b158;
      }

      .cls-50 {
        fill: #9e9b76;
      }

      .cls-51 {
        fill: #c3bd50;
      }

      .cls-52 {
        fill: #c2b934;
      }

      .cls-53 {
        fill: #131a82;
      }

      .cls-54 {
        fill: #98976b;
      }

      .cls-55 {
        fill: #beba54;
      }

      .cls-56 {
        fill: #15176e;
      }

      .cls-57 {
        fill: #7b7ca4;
      }

      .cls-58 {
        fill: #fcfcfc;
      }

      .cls-59 {
        fill: #9f986d;
      }
    </style>
  </defs>
  <path class="cls-47" d="M239.98,120c0,39.63,0,79.27,.02,118.9,0,.9-.2,1.1-1.1,1.1-79.27-.02-158.53-.02-237.8,0C.2,240,0,239.8,0,238.9,.02,159.63,.02,80.37,0,1.1,0,.2,.2,0,1.1,0c79.27,.02,158.53,.02,237.8,0,.9,0,1.1,.2,1.1,1.1-.03,39.63-.02,79.27-.02,118.9Z"/>
  <path class="cls-38" d="M119.88,239.5c-39.23,0-78.46,0-117.7,0q-1.91,0-1.91-1.85c0-78.42,0-156.85,0-235.27,0-.36,.01-.72,0-1.08-.02-.69,.28-1.05,1-1.03,.36,.01,.72,0,1.08,0,78.46,0,156.93,0,235.39,0q1.76,0,1.76,1.76c0,78.58,0,157.17,0,235.75q0,1.72-1.69,1.72c-39.31,0-78.62,0-117.94,0Z"/>
  <path class="cls-30" d="M57.55,33.02c2.27-.09,4.49-.2,6.71-.28,1.52-.05,3.04-.12,4.55-.09,.86,.02,1.26-.28,1.53-1.11,1.04-3.15,2.16-6.27,3.26-9.4,.12-.33,.14-.72,.47-.97,.5,.17,.5,.68,.64,1.06,1.15,3.15,2.31,6.3,3.4,9.47,.27,.78,.64,1.04,1.45,1.04,3.48,.03,6.95,.14,10.43,.22,.27,0,.53,.03,1.09,.07-2.03,1.59-3.83,3-5.64,4.4-1.13,.88-2.24,1.81-3.42,2.62-.81,.56-.99,1.11-.67,2.09,1.06,3.22,2,6.49,2.98,9.74,.08,.26,.22,.52,.02,.93-2.03-1.38-4.04-2.76-6.06-4.13-1.19-.81-2.4-1.58-3.55-2.44-.56-.41-.94-.34-1.47,.03-2.78,1.97-5.59,3.9-8.4,5.85-.32,.22-.59,.54-1.16,.58,.71-2.46,1.39-4.87,2.09-7.28,.38-1.3,.72-2.62,1.15-3.9,.24-.7,.03-1.09-.54-1.5-2.61-1.9-5.19-3.83-7.76-5.79-.39-.3-.86-.58-1.1-1.24Z"/>
  <path class="cls-30" d="M40.58,157.71s-.05,.07-.09,.08c-2.41,1.12-2.49,2.82-1.58,5.1,1,2.5,1.62,5.16,2.41,7.74,.13,.34,.18,.67-.23,.86l-9.61-6.63c-.34-.3-.66-.29-.97,.05-3.16,2.23-6.33,4.46-9.49,6.69-.08-.05-.16-.1-.25-.16,.22-.78,.42-1.56,.65-2.33,.82-2.84,1.59-5.7,2.49-8.51,.3-.92,.05-1.36-.65-1.88-2.63-1.95-5.23-3.94-7.84-5.92-.31-.24-.61-.49-.95-.77,.29-.39,.67-.27,.99-.28,3.44-.11,6.87-.23,10.31-.28,.9-.01,1.34-.29,1.63-1.16,1.01-3.07,2.1-6.12,3.17-9.17,.14-.41,.22-.85,.55-1.2,.47,.23,.47,.72,.61,1.11,1.15,3.15,2.3,6.3,3.39,9.47,.26,.76,.64,1.06,1.45,1.07,3.28,.02,6.56,.09,9.83,.17,.42,0,.88-.12,1.45,.28-2.12,1.67-4.2,3.29-6.27,4.92-.39,.17-.69,.48-1.01,.74Z"/>
  <path class="cls-30" d="M193.41,192.21c-.9,.73-1.74,1.53-2.7,2.16-.95,.61-1.18,1.22-.82,2.34,1,3.11,1.86,6.27,2.77,9.41,.11,.37,.17,.76,.32,1.45-1.12-.77-2.02-1.37-2.91-1.99-2.23-1.55-4.47-3.08-6.67-4.66-.56-.4-.93-.33-1.47,.04-3.02,2.09-6.07,4.13-9.11,6.19-.61-.02-.43-.51-.36-.77,.11-.4,.14-.84,.35-1.21,.86-2.87,1.69-5.75,2.61-8.6,.26-.8,.09-1.21-.55-1.7-2.77-2.11-5.49-4.26-8.24-6.4-.24-.19-.53-.33-.74-.91,1.39,0,2.65,.01,3.91,0,2.4-.03,4.8-.13,7.19-.1,.92,0,1.33-.32,1.63-1.17,1.23-3.54,2.54-7.06,3.82-10.61,.52,.2,.49,.65,.61,1,1.1,3.13,2.2,6.25,3.25,9.4,.28,.83,.67,1.2,1.6,1.21,3.4,.06,6.79,.21,10.19,.33,.35,.01,.7,.05,1.43,.11-1.86,1.4-3.46,2.6-5.06,3.81-.42,.12-.67,.51-1.05,.69Z"/>
  <path class="cls-30" d="M202.54,124.73c.97-3.21,1.91-6.44,2.93-9.63,.25-.79,.09-1.23-.55-1.71-2.67-2.02-5.3-4.08-7.93-6.14-.33-.26-.74-.46-.91-.88,.28-.34,.63-.2,.93-.21,3.32-.08,6.64-.19,9.95-.21,.94,0,1.42-.27,1.74-1.2,1.09-3.22,2.29-6.4,3.45-9.59,.1-.29,.12-.63,.46-.8,.37,.12,.37,.48,.47,.76,1.12,3.2,2.26,6.4,3.34,9.62,.26,.77,.64,1.05,1.45,1.07,3.32,.07,6.63,.2,9.95,.32,.43,.01,.85,.04,1.27,.07,.1,.51-.27,.6-.5,.78-2.72,2.08-5.42,4.18-8.18,6.2-.68,.5-.79,.96-.56,1.71,.98,3.29,1.92,6.6,2.88,9.89,.09,.43,.34,.96-.51,.75-2.91-2-5.82-3.99-8.71-6.02-.53-.37-.91-.47-1.46-.08-1.45,1.02-2.93,1.99-4.41,2.98-.62,.33-1.25,.66-1.75,1.17-.94,.66-1.88,1.31-2.82,1.97-.86,.17-.64-.36-.53-.82Z"/>
  <path class="cls-30" d="M175.09,52.12c-1.97-1.36-3.95-2.72-5.92-4.08-.43-.58-1.06-.9-1.68-1.23-1.77-1.04-1.74-.99-3.55,.29-2.76,1.94-5.57,3.8-8.66,5.91,.7-2.33,1.29-4.32,1.89-6.32,.48-1.6,.93-3.22,1.48-4.8,.28-.79,.04-1.22-.58-1.69-2.7-2.05-5.37-4.15-8.04-6.23-.31-.24-.61-.49-.92-.75,.31-.4,.7-.24,1.03-.25,3.39-.09,6.79-.2,10.18-.22,.87,0,1.25-.31,1.52-1.12,1.11-3.2,2.29-6.38,3.45-9.57,.12-.32,.1-.72,.65-.96,.21,.63,.42,1.25,.63,1.87,.23,.68,.41,1.37,.71,2.03,.79,2.22,1.62,4.42,2.35,6.65,.25,.76,.64,.97,1.38,.99,3.39,.08,6.78,.19,10.18,.31,.38,.01,.8-.13,1.22,.25-1.07,1.09-2.38,1.84-3.56,2.76-1.82,1.42-3.65,2.82-5.5,4.2-.51,.38-.54,.78-.37,1.35,.61,2.06,1.17,4.14,1.75,6.21,.38,1.38,.75,2.76,1.21,4.12h0c.06,1.09-.55,.19-.84,.27Z"/>
  <path class="cls-30" d="M146.65,207.84c.24,.63,.74,.71,1.35,.72,3.47,.09,6.94,.22,10.41,.33,.31,.01,.62,.05,1.25,.11-1.71,1.31-3.2,2.46-4.69,3.6-1.46,1.11-2.91,2.24-4.4,3.31-.64,.46-.83,.88-.58,1.69,1,3.2,1.9,6.43,2.83,9.65,.12,.41,.32,.82,.2,1.36-.97-.37-1.69-1.05-2.49-1.6-2.36-1.64-4.7-3.32-7.05-4.98-.38-.49-.77-.47-1.16-.02-2.29,1.58-4.58,3.15-6.87,4.73-.26,.18-.51,.35-.77,.53-.54,.23-.98,.62-1.5,.87-.46,.22-.69,.14-.5-.42h0c.25-.53,.31-1.14,.5-1.7,.79-2.68,1.53-5.37,2.39-8.02,.3-.93,.07-1.42-.68-1.98-2.62-1.96-5.19-3.99-7.76-6.01-.32-.26-.81-.4-.86-.93,.4-.27,.86-.15,1.28-.17,3.31-.1,6.63-.21,9.94-.25,.75,0,1.03-.33,1.26-.97,1.15-3.23,2.34-6.45,3.51-9.67,.27-.21,.09-.88,.73-.72h0c.21,.46,.25,1,.5,1.46,.65,1.88,1.3,3.77,1.94,5.65,.4,1.15,.7,2.33,1.19,3.45Z"/>
  <path class="cls-30" d="M17.52,123.77c.85-2.95,1.67-5.92,2.56-8.86,.25-.82,.1-1.28-.61-1.79-2.66-1.94-5.26-3.95-7.87-5.95-.31-.24-.7-.4-.86-.81,.21-.37,.57-.2,.85-.21,3.48-.13,6.95-.26,10.43-.33,.85-.02,1.26-.3,1.53-1.13,1.02-3.11,2.12-6.19,3.2-9.29,.13-.37,.29-.72,.45-1.1,.52,.29,.55,.76,.7,1.16,1.12,3.08,2.26,6.15,3.32,9.25,.31,.89,.73,1.26,1.71,1.25,3.62-.06,7.25-.02,10.91,.17-.66,1.12-1.65,1.68-2.53,2.37-.36,.21-.67,.48-.98,.76-1.72,1.34-3.4,2.74-5.16,4.01-.83,.6-.97,1.16-.64,2.09,.5,1.41,.85,2.88,1.26,4.33,.43,1.58,.9,3.16,1.38,4.72,.12,.38,.54,.88-.21,1.13h0c-.2-.24-.5-.33-.76-.46-2.78-1.88-5.57-3.75-8.34-5.64-.45-.31-.8-.39-1.28-.05-2.82,1.99-5.67,3.95-8.51,5.92-.25,.09-.51,.37-.77,.17-.26-.2-.14-.52,0-.77,.16-.29,.05-.64,.22-.92Z"/>
  <path class="cls-30" d="M208.03,82.58c-2.64-1.82-5.29-3.64-7.91-5.48-.67-.47-1.19-.61-1.98-.05-2.74,1.95-5.56,3.79-8.35,5.67-.32,.22-.6,.53-1.11,.53,.15-1.29,.66-2.46,1.01-3.68,.68-2.38,1.38-4.76,2.16-7.11,.25-.75,.08-1.14-.53-1.6-2.7-2.04-5.36-4.13-8.02-6.21-.34-.26-.65-.55-1-.85,.33-.38,.71-.22,1.04-.23,3.32-.08,6.63-.19,9.95-.2,.99,0,1.47-.31,1.8-1.27,1.19-3.47,2.47-6.91,3.72-10.38,.5,.1,.52,.51,.63,.82,1.12,3.2,2.27,6.4,3.34,9.62,.26,.77,.62,1.05,1.44,1.07,3.44,.07,6.87,.2,10.31,.33,.34,.01,.71-.12,1.07,.18-.54,.84-1.53,1.12-2.16,1.8-.42,.14-.71,.45-1.02,.74-1.88,1.45-3.74,2.93-5.67,4.32-.68,.49-.77,.95-.54,1.7,.59,1.94,1.11,3.89,1.66,5.84,.34,1.4,.66,2.81,1.19,4.16h0c.11,.31,.3,.65-.25,.74h-.01c-.19-.26-.49-.33-.75-.48Z"/>
  <path class="cls-30" d="M50.61,83.05c-3.04-2.06-6.08-4.12-9.11-6.19-.44-.3-.77-.4-1.26-.05-2.65,1.87-5.33,3.7-8,5.54-.26,.11-.48,.27-.75,.37-.78,.29-.69-.15-.54-.64h0c.25-.54,.32-1.15,.49-1.72,.74-2.62,1.48-5.24,2.22-7.86,.13-.45,.37-.89,.17-1.38-.28-.31-.6-.58-.98-.77-1.99-1.51-3.99-3.02-5.98-4.53-.29-.29-.6-.57-.97-.75-.5-.42-1.16-.64-1.58-1.38,2.09-.32,4.17,.07,6.18-.4,1.59-.28,3.2-.17,4.8-.12,1.11,.31,1.61-.18,1.97-1.24,1.1-3.31,2.31-6.59,3.47-9.88,.15-.09,.31-.13,.47-.04,1.23,3.38,2.5,6.74,3.66,10.14,.33,.99,.82,1.27,1.8,1.26,3.63-.05,7.26-.02,10.89-.02,.05,.16,.09,.32,.14,.48-2.81,2.16-5.63,4.32-8.44,6.49-.38,.2-.69,.47-.99,.77-.5,.43-.28,.92-.13,1.42,1.01,3.34,2.01,6.67,3.01,10.01,.19,.55,.01,.72-.53,.52Z"/>
  <path class="cls-30" d="M92.88,208.5c1.16-2.55,1.88-5.25,2.86-7.87,.45-1.19,.85-2.4,1.27-3.62,.58,.23,.57,.74,.71,1.12,1.15,3.15,2.3,6.3,3.4,9.47,.26,.75,.62,1.05,1.45,1.05,3.31,.03,6.63,.15,9.94,.24,.38,.01,.79-.06,1.26,.21-1.39,1.41-3.03,2.39-4.48,3.6-1.44,1.2-2.92,2.34-4.43,3.44-.66,.48-.79,.92-.54,1.71,.88,2.77,1.68,5.58,2.5,8.37,.14,.21,.07,.47,.14,.69,.11,.37,.43,.78,.01,1.09-.35,.26-.64-.2-.99-.25-2.71-1.83-5.44-3.64-8.13-5.51-.63-.44-1.03-.44-1.66,.01-2.8,2.01-5.66,3.96-8.49,5.93-.23,.16-.43,.36-.8,.34-.06-.89,.34-1.7,.57-2.52,.8-2.88,1.64-5.75,2.51-8.61,.2-.66,.03-1.01-.5-1.4-1.37-1-2.7-2.07-4.04-3.11-.33-.28-.61-.61-1.04-.75-1.02-.78-2.03-1.57-3.05-2.35-.17-.24-.61-.39-.42-.75,.14-.28,.51-.15,.77-.15,3.46,.09,6.92-.3,10.38-.25,.26,0,.56,.1,.78-.16Z"/>
  <path class="cls-30" d="M60.43,202.57c-.8-.52-1.63-1-2.39-1.58-.56-.43-.96-.47-1.57-.04-3.03,2.16-6.09,4.26-9.14,6.38-.58-.47-.05-.96-.02-1.44,.95-3.22,1.87-6.44,2.85-9.64,.23-.74,.04-1.14-.56-1.59-2.68-1.99-5.33-4.02-7.99-6.04-.3-.23-.69-.4-1-1.15,1.59,0,3,.03,4.42,0,2.36-.05,4.71-.19,7.07-.2,.9,0,1.23-.37,1.49-1.15,1.05-3.14,2.17-6.26,3.27-9.39,.13-.36,.16-.77,.62-1.08,1.24,3.41,2.52,6.75,3.63,10.15,.42,1.3,1.05,1.71,2.39,1.67,3.46-.09,6.93-.03,10.66-.03-.47,.9-1.03,1.17-1.47,1.52-2.5,1.97-5.01,3.94-7.56,5.85-.73,.54-.94,1.05-.59,1.9,.26,.62,.35,1.3,.52,1.95,.69,2.42,1.37,4.85,2.19,7.24v-.02c.17,.69,.04,1.06-.77,.77h0c-.52-.48-1.06-.93-1.73-1.19-.86-.56-1.71-1.12-2.57-1.69-.56-.43-1.12-.85-1.74-1.19Z"/>
  <path class="cls-30" d="M198.7,170.36c.96-3.21,1.89-6.43,2.92-9.62,.26-.8,.08-1.22-.55-1.69-2.69-2.04-5.35-4.13-8.01-6.2-.3-.24-.71-.39-.82-.86,.35-.38,.81-.21,1.22-.22,3.31-.07,6.63-.14,9.94-.17,.76,0,1.12-.28,1.37-1,1.12-3.2,2.29-6.38,3.44-9.57,.13-.37,.29-.74,.7-1.16,1.32,3.77,2.63,7.53,3.95,11.3,.23,.45,.66,.37,1.05,.37,1.03,0,2.06-.01,3.09,0,.27,0,.69-.17,.7,.37-1.52,.22-3.04,.05-4.55,.03-.15-.13,.13-.16,.02-.04,1.17,.27,2.35,.05,3.52,.12,.92,.06,1.79-.35,2.71-.23,1.63-.02,3.26,0,4.88,0,.26,0,.63-.13,.77,.15,.19,.37-.25,.51-.42,.74-.62,.47-1.23,.94-1.85,1.41-.64,.31-1.13,.85-1.74,1.2-1.39,1.36-3.02,2.4-4.55,3.57-.3,.19-.63,.35-.73,.74,1.03,3.58,2.07,7.16,3.1,10.73,0,.37,.49,.87-.29,1.03-2.95-2.05-5.91-4.07-8.83-6.16-.61-.44-1.01-.51-1.66-.05-3.02,2.11-6.09,4.14-9.14,6.2-.64-.2-.36-.63-.25-1.02Z"/>
  <path class="cls-30" d="M134.86,22.55c-2.82,2.21-5.6,4.47-8.47,6.62-.73,.55-.97,.99-.69,1.86,.83,2.59,1.6,5.19,2.38,7.79,.2,.68,.35,1.37,.52,2.05,.2,.2,.24,.45,.02,.61-.27,.2-.5-.08-.75-.18-2.93-1.99-5.87-3.97-8.8-5.98-.45-.31-.83-.38-1.3-.05-2.52,1.77-5.05,3.54-7.57,5.31-.4,.24-.79,.47-1.19,.7-.47,.28-.75,.12-.57-.48h0c.25-.55,.34-1.16,.49-1.74,.79-2.76,1.54-5.54,2.4-8.28,.25-.8,.05-1.22-.58-1.69-2.97-2.21-5.9-4.45-8.91-6.73,.4-.43,.86-.31,1.25-.32,3.36-.1,6.71-.22,10.07-.26,.91-.01,1.33-.34,1.61-1.2,1.03-3.11,2.14-6.19,3.22-9.29,.13-.37,.29-.72,.55-1.38,1.5,4.01,2.91,7.75,4.31,11.49,.09,.08,.19,.16,.3,.24,.12,.06,.23,.12,.36,.18,1.78,.28,3.58,.2,5.36,.27,1.79,.07,3.59,0,5.39,.03,.23,.1,.62,0,.6,.44Z"/>
  <path class="cls-58" d="M165.99,82.07c6.02-.04,10.91,2.12,13.78,7.63,5.02,9.6-1.37,20.54-12.28,21.16-4.67,.27-9.07-.53-12.49-4.02-4.48-4.58-5.51-10.07-3.2-15.93,2.24-5.7,6.84-8.43,12.87-8.82,.44-.03,.88,0,1.32,0Z"/>
  <path class="cls-58" d="M123.83,141.32c4.84,.02,9.67,.02,14.51,.06,1.04,0,2.08,.1,3.1,.25,4.27,.63,6.74,4.41,5.83,8.87-.48,2.33-1.18,3.16-4.34,5.06,2.31,.92,2.68,3,3.16,5,.66,2.75,.78,5.63,1.99,8.25,.23,.51-.11,.53-.46,.53-1.16,0-2.32-.01-3.48,0-.72,0-.8-.55-.95-1.04-.72-2.38-.92-4.87-1.38-7.3-.43-2.28-1.3-3.23-3.59-3.52-3.18-.41-6.39-.17-9.59-.23-.85-.02-.69,.58-.69,1.08,0,3.24-.05,6.48,.03,9.71,.03,1.1-.33,1.33-1.36,1.31-2.9-.06-2.9-.02-2.9-2.98,0-7.88,0-15.75,0-23.63,0-.48,.06-.95,.09-1.43h.03Z"/>
  <path class="cls-58" d="M141.54,96.67c2.34,.79,2.84,2.66,3.26,4.56,.53,2.42,1.06,4.84,1.52,7.27,.12,.66,1.02,1.33,.45,1.87-.37,.35-1.3,.1-1.97,.1-2.67,0-2.68,0-3.17-2.63-.33-1.77-.6-3.55-.91-5.32-.49-2.81-1.32-3.63-4.12-3.94-3.03-.34-6.07-.09-9.1-.18-.87-.03-.7,.56-.7,1.05,0,3.32-.03,6.64,.01,9.95,.01,.82-.19,1.09-1.05,1.09-3.2,0-3.2,.03-3.2-3.13,0-7.87,.02-15.75-.02-23.62,0-.96,.2-1.31,1.23-1.29,5.39,.15,10.8-.27,16.18,.3,5.32,.56,8.19,6.59,5.35,11.15-.83,1.34-2.1,2.11-3.75,2.77Z"/>
  <path class="cls-58" d="M96.89,155.25c0-4.24,.02-8.48-.02-12.72,0-.93,.23-1.23,1.2-1.22,6.2,.04,12.4,.04,18.59,0,.96,0,1.22,.27,1.2,1.21-.04,2.64,0,2.64-2.64,2.64-4.28,0-8.56,.03-12.84-.02-.97-.01-1.23,.3-1.19,1.23,.07,1.64,.08,3.28,0,4.92-.05,1.03,.21,1.38,1.31,1.36,4.28-.07,8.56,0,12.84-.05,1.01-.01,1.4,.19,1.36,1.3-.08,2.58-.02,2.58-2.58,2.58-3.92,0-7.84,.02-11.76-.02-.87,0-1.19,.2-1.17,1.13,.06,2.24,.06,4.48,0,6.72-.02,.86,.28,1.07,1.1,1.07,4.92-.03,9.84,.02,14.76-.04,1.08-.01,1.35,.3,1.32,1.34-.07,2.69-.02,2.69-2.72,2.69-5.84,0-11.68-.02-17.52,.02-1.01,0-1.28-.29-1.27-1.28,.05-4.28,.02-8.56,.02-12.84Z"/>
  <path class="cls-58" d="M67.45,86.41c-.52,.15-.32,.59-.32,.9-.02,1.8,.03,3.6-.02,5.4-.03,.84,.25,1.1,1.09,1.09,4.4-.04,8.8,.01,13.2-.04,.94-.01,1.22,.24,1.2,1.19-.05,2.68,0,2.68-2.69,2.68-3.88,0-7.76,.02-11.64-.02-.88-.01-1.19,.23-1.16,1.14,.06,2.16,.07,4.32,0,6.48-.03,.98,.23,1.3,1.26,1.29,4.88-.05,9.76,0,14.64-.04,.99,0,1.3,.24,1.28,1.26-.05,2.75,0,2.75-2.76,2.75-5.84,0-11.68-.02-17.52,.02-.91,0-1.23-.19-1.23-1.18,.04-8.56,.03-17.12,0-25.67,0-.85,.15-1.19,1.1-1.18,6.24,.04,12.48,.05,18.72,0,1,0,1.19,.34,1.18,1.24-.04,2.61,0,2.6-2.66,2.61-4.4,.02-8.79,.05-13.19,.07-.15,.17-.32,.15-.48,.02Z"/>
  <path class="cls-58" d="M114.74,92.42c0,2.68,.06,5.36-.01,8.03-.13,5.12-2.42,8.2-7.29,9.76-4.11,1.32-8.21,1.21-12.17-.58-3.7-1.67-5.67-4.6-5.78-8.66-.11-3.84-.09-7.67-.11-11.51-.01-1.96,.03-3.92-.02-5.88-.02-.79,.16-1.12,1.04-1.12,3.39-.02,3.38-.05,3.39,3.32,.01,4.44,.03,8.87,.06,13.31,.02,3.15,.84,5.91,4.04,7.25,3.53,1.48,6.96,1.28,10.1-1.04,1.28-.95,1.89-2.34,2.15-3.89,.28-1.62,.28-3.27,.28-4.9,.02-4.32,.02-8.64-.01-12.95,0-.81,.18-1.1,1.05-1.1,3.34-.01,3.34-.04,3.34,3.24,0,2.24,0,4.48,0,6.72-.02,0-.05,0-.07,0Z"/>
  <path class="cls-58" d="M79.04,169.8c-4.4-.03-8.41-1.06-11.45-4.5-5.82-6.61-4-18.6,3.58-22.54,5.06-2.63,10.41-2.6,15.65-.36,2.45,1.05,3.96,3.03,4.46,5.72,.15,.81,.06,1.23-.88,1.13-.51-.06-1.04-.04-1.56,0-1.31,.1-2.28,.06-2.83-1.62-.59-1.78-2.44-2.44-4.21-2.82-1.81-.39-3.66-.39-5.48,0-4.42,.94-7.13,4.37-7.42,9.38-.04,.64-.03,1.28-.01,1.92,.22,7.65,6.89,12.16,14.12,9.54,1.94-.7,3.29-1.95,3.66-4.05,.11-.63,.39-.87,1.04-.83,1.04,.05,2.08,.05,3.12,0,.71-.03,.89,.19,.76,.9-.69,3.83-3.05,6.13-6.64,7.31-1.92,.63-3.91,.82-5.91,.84Z"/>
  <path class="cls-58" d="M164.03,141.34c4.24,0,8.48,.02,12.71-.02,.82,0,1.1,.2,1.1,1.06,0,2.88,.04,2.88-2.87,2.88-2.52,0-5.04,.04-7.56-.02-.9-.02-1.15,.25-1.14,1.15,.04,7.2,0,14.39,.05,21.59,0,1.1-.28,1.43-1.4,1.4-3.05-.07-3.05-.02-3.05-3.08,0-6.6-.02-13.19,.02-19.79,0-1-.26-1.3-1.26-1.28-3.04,.06-6.08-.02-9.12,.05-.99,.02-1.19-.31-1.17-1.22,.04-2.72,0-2.72,2.77-2.72,3.64,0,7.28,0,10.92,0Z"/>
  <path class="cls-27" d="M185.74,122.44c.41,1.61,.16,3.24,.18,4.86,.04,3.43,.01,3.43-3.44,3.43-41.73,0-83.45,0-125.18,0-.6,0-1.21-.06-1.8,.01-1.14,.13-1.55-.27-1.49-1.46,.1-1.91,.02-3.84,.03-5.75,0-.38-.14-.8,.19-1.14,.5,.16,1.21-.36,1.49,.48-.6,.76-.77,1.63-.72,2.58,.05,.96-.01,1.92,.02,2.88,.04,1.19,.25,1.4,1.4,1.46,.36,.02,.72,0,1.08,0,41.67,0,83.34,0,125.01,0q2.47,0,2.47-2.45c0-.88,0-1.76,0-2.64,0-.91-.44-1.31-1.33-1.3-.56,0-1.12,0-1.68,0-40.91,0-81.82,0-122.73,0-.76,0-1.52,.03-2.28-.04-.48-.04-.99-.09-1.04-.74,.38-.32,.84-.22,1.27-.22,42.53,0,85.06,0,127.59,0,.32,0,.64,0,.96,.04Z"/>
  <path class="cls-48" d="M185.74,122.44c-.55,.34-1.17,.19-1.76,.19-42.68,0-85.36,0-128.04,0-.08,.1-.16,.1-.24,0-.49-.05-1.02,.13-1.46-.25,.53-.43,1.16-.22,1.73-.22,42.41,0,84.82,0,127.23,.01,.84,0,1.75-.34,2.54,.26Z"/>
  <path class="cls-45" d="M177.18,141.06h-26.55s0-.08,0-.11h26.57s0,.08-.01,.11Z"/>
  <path class="cls-56" d="M117.44,141.07h-20.07s0-.08,0-.11h20.07s0,.08,0,.11Z"/>
  <path class="cls-28" d="M88.87,99.95v-17.01s.07,0,.1,0v17.01s-.07,0-.1,0Z"/>
  <path class="cls-33" d="M123.81,141.34c-.19-.47,.18-.45,.44-.45,5.26,0,10.53,0,16.11,0-.81,.34-1.32,.23-1.82,.23-4.43,.01-8.87,0-13.3,.01-.47,0-.97-.11-1.39,.2,0,0-.03,.01-.03,.01Z"/>
  <path class="cls-7" d="M92.88,208.5c-.29,.38-.72,.27-1.11,.28-3.3,.12-6.61,.36-9.91,.28-.63-.02-.95,.09-.5,.75-.4-.1-.71-.33-1.05-.89,4.27-.22,8.41-.42,12.57-.42Z"/>
  <path class="cls-2" d="M110.11,82.63v14.45c-.07,0-.13,0-.2,0v-14.47c.07,0,.13,.01,.2,.02Z"/>
  <path class="cls-35" d="M224.63,152.69c.23-.45,.37-.78-.4-.76-1.63,.04-3.26,0-4.89-.01-.55,.16-1.09,.22-1.63-.03-1.21-.31-2.45-.13-3.68-.21-.43-.03-1.01,.21-1.17-.49,.51,.3,1.08,.22,1.63,.23,3.42,.1,6.84,.19,10.26,.29,.26,0,.56-.08,.81,.23-.15,.44-.51,.63-.93,.76Z"/>
  <path class="cls-52" d="M134.86,22.55c-.14-.07-.29-.14-.43-.21-1.3-.27-2.62-.09-3.92-.11-2.15-.04-4.31,0-6.46-.02-.33,0-.84,.28-.96-.36,1.45-.52,2.9-.11,4.36,0,2.31,.04,4.63,.07,6.94,.13,.25,0,1.08-.23,.47,.57Z"/>
  <path class="cls-1" d="M67.25,205.89c-1.07-2.31-1.76-4.73-2.19-7.24,.92,2.35,1.63,4.77,2.19,7.24Z"/>
  <path class="cls-53" d="M35.3,63.16c-1.6,.13-3.2,.23-4.8,.12,.1-.24,.28-.4,.54-.38,1.42,.11,2.87-.32,4.27,.26Z"/>
  <path class="cls-10" d="M36.97,125.52c.41-.45,.09-.88-.01-1.32-.36-1.52-1.13-2.93-1.16-4.53,.85,2.01,1.3,4.14,1.98,6.24-.47,.06-.64-.15-.8-.38Z"/>
  <path class="cls-25" d="M67.45,86.41c.16,0,.32-.01,.48-.02-.49,1.35-.16,2.75-.23,4.13-.05,.82,0,1.65-.25,2.47v-6.58Z"/>
  <path class="cls-32" d="M105.99,227.77c.75,.18,1.24,.13,.85-.85-.08-.2-.01-.45-.01-.68,.38,.74,.59,1.52,.72,2.45-.7-.15-1.14-.51-1.56-.91Z"/>
  <path class="cls-21" d="M175.93,51.85c-.71-1.28-1.06-2.67-1.21-4.12,.59,1.32,.97,2.7,1.21,4.12Z"/>
  <path class="cls-10" d="M209.03,82.32c-.74-1.29-1.1-2.68-1.19-4.16,.54,1.34,.97,2.72,1.19,4.16Z"/>
  <path class="cls-23" d="M167.87,111.3h-4.33s0-.08,0-.12h4.33s0,.08,0,.12Z"/>
  <path class="cls-17" d="M127.45,21.84c-1.44,.01-2.88,.02-4.32,.04-.11,.13-.19,.11-.25-.04,0-.09,0-.18,0-.26,1.04-.1,2.07-.17,3.1,.04,.48,.08,1.01-.1,1.45,.23Z"/>
  <path class="cls-44" d="M132.69,227.72c.18,.49,.47,.28,.74,.11,.4-.24,.73-.61,1.26-.56-.66,.56-1.35,1.07-2.16,1.46-.2-.43-.13-.74,.17-1.01Z"/>
  <path class="cls-24" d="M146.65,207.84c-.69-1.05-1.04-2.22-1.19-3.45,.58,1.09,.94,2.25,1.19,3.45Z"/>
  <path class="cls-14" d="M108.45,40.8c.12,.25,.22,.53,.6,.29,.36-.23,.68-.55,1.16-.51-.59,.54-1.22,1.04-2.02,1.34-.13-.48,.03-.81,.26-1.12Z"/>
  <path class="cls-55" d="M17.52,123.77c.1,.32,.04,.63-.07,.92-.29,.74,.2,.63,.63,.6-.33,.31-.62,.7-1.22,.68,.1-.79,.28-1.52,.66-2.2Z"/>
  <path class="cls-46" d="M30.95,82.07c.2,1.17,.89,.02,1.29,.27-.49,.38-.98,.76-1.56,1.21-.26-.65,.03-1.06,.27-1.48Z"/>
  <path class="cls-1" d="M66.49,206.64c.52,.01,.72-.3,.76-.77,.35,.41,.39,.92,.52,1.52-.61-.04-.95-.38-1.28-.75Z"/>
  <path class="cls-59" d="M172.81,205.17c.28,.66-.74,1.33,.02,1.99-.11,.24-.3,.41-.54,.34-.32-.09-.19-.38-.12-.58,.2-.58,.24-1.23,.64-1.74Z"/>
  <path class="cls-40" d="M125.99,21.62c-1.03-.01-2.07-.03-3.1-.04-.06-.05-.07-.1-.03-.17,1.05,.06,2.12-.26,3.13,.21Z"/>
  <path class="cls-1" d="M64.74,205.45c.77,.11,1.41,.42,1.73,1.18-.67-.27-1.25-.65-1.73-1.18Z"/>
  <path class="cls-12" d="M167.5,46.81c.82,.06,1.36,.49,1.68,1.23-.59-.36-1.22-.68-1.68-1.23Z"/>
  <path class="cls-13" d="M127.88,41.3c.29-.07,.78,.22,.72-.43,.37,.26,.36,.64,.42,1.05-.58,.02-.84-.33-1.14-.62Z"/>
  <path class="cls-6" d="M205.88,123.58c.38-.7,.98-1.05,1.75-1.17-.51,.49-1.09,.89-1.75,1.17Z"/>
  <path class="cls-34" d="M221.05,155.31c.46-.57,.95-1.11,1.74-1.2-.52,.49-1,1.03-1.74,1.2Z"/>
  <path class="cls-41" d="M60.43,202.57c.74,.16,1.32,.56,1.74,1.19-.68-.26-1.27-.63-1.74-1.19Z"/>
  <path class="cls-43" d="M222.21,125.52c.48-.04,.42-.45,.51-.75,.08,.13,.19,.26,.22,.4,.05,.27,.38,.63-.02,.81-.32,.14-.54-.19-.71-.45Z"/>
  <path class="cls-21" d="M175.09,52.12c.29-.08,.7,.24,.84-.28,.25,.27,.34,.58,.22,.96-.48-.05-.79-.34-1.06-.67Z"/>
  <path class="cls-31" d="M202.54,124.73c.05,.36,0,.77,.53,.82-.22,.25-.54,.69-.8,.4-.33-.37,.02-.84,.28-1.22Z"/>
  <path class="cls-50" d="M198.7,170.36c.11,.33-.15,.76,.25,1.02-.11,.23-.26,.43-.53,.34-.24-.08-.17-.33-.1-.5,.11-.29,.26-.57,.39-.85Z"/>
  <path class="cls-51" d="M167.28,25c-.52-.58-.7-1.27-.71-2.03,.41,.61,.62,1.3,.71,2.03Z"/>
  <path class="cls-3" d="M218.59,171.38c.45-.24,.18-.69,.29-1.03,.29,.2,.24,.55,.36,.82,.07,.17,.16,.4-.09,.48-.24,.08-.45-.03-.56-.27Z"/>
  <path class="cls-16" d="M47.32,205.9c.17,.48-.3,.96,.02,1.44-.29,.34-.52,.23-.48-.15,.05-.45,.12-.93,.46-1.29Z"/>
  <path class="cls-46" d="M31.44,80.35c.06,.64-.03,1.24-.49,1.73,.01-.62,.18-1.19,.49-1.73Z"/>
  <path class="cls-57" d="M41.09,171.5c.28-.23,.21-.56,.23-.86,.26,.34,.55,.72,.2,1.12-.12,.14-.35-.07-.44-.26Z"/>
  <path class="cls-14" d="M108.94,39.06c.07,.65-.03,1.25-.49,1.75-.02-.63,.18-1.21,.49-1.75Z"/>
  <path class="cls-42" d="M143.02,197.28c-.24,.24-.49,.48-.73,.72,.07-.29,.08-.62,.22-.87,.27-.46,.45-.27,.51,.15Z"/>
  <path class="cls-36" d="M142.33,222.02c.4-.83,.79-.81,1.16,.02-.38-.25-.77-.22-1.16-.02Z"/>
  <path class="cls-44" d="M133.19,226.02c.07,.64-.06,1.22-.5,1.72-.03-.63,.2-1.18,.5-1.72Z"/>
  <path class="cls-11" d="M30.51,164.93c.29-.55,.6-.83,.97-.05-.32,.02-.65,.04-.97,.05Z"/>
  <path class="cls-42" d="M143.51,198.74c-.4-.41-.55-.9-.5-1.47,.32,.44,.49,.92,.5,1.47Z"/>
  <path class="cls-10" d="M208.78,83.06c.08-.25,.17-.49,.25-.74,.25,.3,.49,.68,.24,1.01-.15,.21-.37-.08-.49-.27Z"/>
  <path class="cls-54" d="M50.61,83.05c.32-.02,.47-.23,.53-.52,.22,.24,.44,.56,.18,.81-.3,.29-.53-.03-.71-.29Z"/>
  <path class="cls-37" d="M215.77,159.62c-.12-.6,.28-.69,.73-.74-.24,.25-.48,.49-.73,.74Z"/>
  <path class="cls-49" d="M40.58,157.71c.2-.43,.49-.74,1.01-.74-.28,.32-.56,.65-1.01,.74Z"/>
  <path class="cls-18" d="M25.9,65.07c.5,.02,.8,.29,.97,.75-.41-.14-.76-.36-.97-.75Z"/>
  <path class="cls-4" d="M212.4,66.3c.19-.45,.48-.77,1.02-.74-.29,.32-.57,.65-1.02,.74Z"/>
  <path class="cls-26" d="M32.85,70.34c.52,0,.81,.32,.98,.77-.42-.14-.75-.39-.98-.77Z"/>
  <path class="cls-39" d="M48.27,71.1c.19-.44,.48-.74,.99-.77-.23,.39-.54,.67-.99,.77Z"/>
  <path class="cls-20" d="M84.4,212.16c.53-.01,.84,.3,1.04,.75-.46-.09-.75-.42-1.04-.75Z"/>
  <path class="cls-5" d="M193.41,192.21c.25-.38,.53-.71,1.05-.69-.29,.32-.55,.69-1.05,.69Z"/>
  <path class="cls-22" d="M40.34,109.24c.2-.41,.47-.74,.98-.76-.23,.37-.54,.65-.98,.76Z"/>
  <path class="cls-9" d="M41.21,51.99c-.15,.12-.3,.17-.47,.04-.03-.21,0-.41,.27-.4,.16,.01,.25,.17,.21,.35Z"/>
  <path class="cls-10" d="M208.03,82.58c.39-.06,.68,.04,.75,.48-.34-.01-.53-.26-.75-.48Z"/>
  <path class="cls-10" d="M36.21,125.06c.38-.05,.69,0,.76,.46-.33-.03-.55-.23-.76-.46Z"/>
  <path class="cls-15" d="M217.71,151.89c.54,0,1.09,.02,1.63,.03-1.11,.49-2.27,.16-3.4,.22-.98,.05-1.97,.01-2.95-.25,1.58,0,3.15,0,4.73,0Z"/>
  <path class="cls-8" d="M122.88,21.84c.08,.01,.16,.03,.25,.04,.38,.31,.84,.2,1.27,.21,2.88,.03,5.75,.04,8.63,.06,.47,0,.96-.09,1.4,.18-3.46,0-6.91,0-10.37-.01-.44,0-1,.18-1.18-.49Z"/>
  <path class="cls-19" d="M155.38,96.56c-.02-6.3,4.28-10.63,10.61-10.67,6.32-.04,10.68,4.27,10.7,10.57,.02,6.28-4.24,10.56-10.53,10.59-6.39,.03-10.75-4.21-10.77-10.49Z"/>
  <path class="cls-19" d="M134.03,145.1c1.75,.05,3.92-.05,6.04,.43,2.01,.46,2.84,1.54,2.83,3.69,0,2.31-.87,3.5-2.91,3.88-3.76,.7-7.57,.36-11.36,.45-.52,.01-.7-.23-.69-.72,.01-2.32,.02-4.63,0-6.95,0-.69,.35-.78,.9-.78,1.6,.02,3.2,0,5.19,0Z"/>
  <path class="cls-19" d="M132.88,86.25c1.64,.03,3.73-.03,5.78,.38,2.2,.44,3.1,1.55,3.09,3.73-.01,2.39-.91,3.55-3.15,3.94-3.69,.64-7.42,.29-11.13,.38-.52,.01-.7-.18-.69-.7,.02-2.32,.03-4.64,0-6.96-.01-.68,.31-.79,.87-.78,1.6,.02,3.2,0,5.23,0Z"/>
  <path class="cls-29" d="M55.69,122.64c.08,0,.16,0,.24,0,.54,.41,1.16,.23,1.74,.23,41.98,0,83.97,0,125.95,0q1.88,0,1.88,1.89c0,1.52-.02,3.04,0,4.56,.01,.71-.25,1.05-.98,.99-.28-.02-.56,0-.84,0-42.46,0-84.93,0-127.39,0q-1.81,0-1.81-1.83c0-1.32,.06-2.64-.02-3.96-.06-1,.12-1.7,1.22-1.88Z"/>
</svg>