<?xml version="1.0" encoding="UTF-8"?>
<svg xmlns="http://www.w3.org/2000/svg" viewBox="0 0 500 102.23">
  <defs>
    <style>
      .cls-1 {
        fill: #cf8827;
      }
    </style>
  </defs>
  <g id="O2">
    <path class="cls-1" d="M496,31.24c-2.67-6.22-6.32-11.65-10.95-16.29-4.63-4.63-10.06-8.28-16.29-10.95-6.23-2.67-12.84-4-19.86-4s-13.64,1.33-19.86,4c-6.23,2.67-11.65,6.32-16.29,10.95-.62,.62-1.21,1.25-1.8,1.9h37.54c.14,0,.27,0,.41,0,4.58,0,8.96,.87,13.13,2.6,4.16,1.73,7.88,4.24,11.16,7.51,3.28,3.28,5.76,6.97,7.44,11.09,1.68,4.12,2.53,8.47,2.53,13.06s-.84,8.96-2.53,13.13c-1.68,4.17-4.17,7.89-7.44,11.16-3.28,3.28-7,5.76-11.16,7.44-4.17,1.68-8.54,2.53-13.13,2.53s-8.94-.85-13.06-2.53c-4.12-1.69-7.82-4.16-11.09-7.44-3.28-3.27-5.78-6.99-7.51-11.16-1.73-4.16-2.6-8.54-2.6-13.13s.86-8.94,2.6-13.06c1.56-3.72,3.77-7.1,6.6-10.14h-20.47c-.55,1.09-1.09,2.19-1.57,3.33-2.67,6.23-4,12.84-4,19.86s1.33,13.64,4,19.86c2.67,6.23,6.32,11.65,10.95,16.28,4.63,4.63,10.06,8.28,16.29,10.95,6.22,2.67,12.85,4,19.86,4s13.64-1.33,19.86-4c6.22-2.67,11.65-6.32,16.29-10.95,4.63-4.63,8.28-10.06,10.95-16.28,2.67-6.22,4-12.85,4-19.86s-1.33-13.64-4-19.86Z"/>
  </g>
  <g id="R2">
    <polygon class="cls-1" points="304.92 27.91 287.39 27.91 287.39 90.72 287.33 90.72 282.61 90.72 282.61 102.23 287.33 102.23 304.84 102.23 309.56 102.23 309.56 90.72 304.92 90.72 304.92 27.91"/>
  </g>
  <g id="R1">
    <path class="cls-1" d="M354.9,90.72l-13.48-20.93c3.11-1.46,5.96-3.34,8.54-5.62,2.58-2.29,4.77-4.85,6.58-7.67,1.79-2.82,3.21-5.91,4.23-9.28,1.03-3.35,1.54-6.88,1.54-10.59,0-5.05-.98-9.8-2.92-14.23-1.95-4.42-4.58-8.3-7.89-11.6-3.31-3.31-7.18-5.94-11.6-7.89C335.45,.97,330.71,0,325.64,0h-38.25V16.85h38.25c5.26,0,9.79,2.57,13.58,6.36,1.76,1.76,3.11,3.8,4.09,6.14,.97,2.34,1.45,4.77,1.45,7.29s-.48,4.97-1.45,7.3c-.98,2.34-2.34,4.44-4.09,6.28-3.79,3.8-8.32,5.69-13.58,5.69h-7.58l-7.16,17.53h11.97l13.64,21.17v7.62h26.95v-11.51h-8.57Z"/>
  </g>
  <g id="O1">
    <path class="cls-1" d="M233.32,14.95c-4.63-4.63-10.06-8.28-16.29-10.95-6.23-2.67-12.85-4-19.87-4s-13.64,1.33-19.87,4c-6.23,2.67-11.65,6.32-16.29,10.95-.62,.62-1.21,1.25-1.8,1.9h37.54c.14,0,.27,0,.41,0,4.58,0,8.96,.87,13.13,2.6,4.16,1.73,7.88,4.24,11.16,7.51,3.28,3.28,5.76,6.97,7.44,11.09,1.68,4.12,2.53,8.47,2.53,13.06s-.84,8.96-2.53,13.13c-1.69,4.17-4.17,7.89-7.44,11.16-3.28,3.28-7,5.76-11.16,7.44-4.17,1.68-8.54,2.53-13.13,2.53s-8.94-.85-13.06-2.53c-4.12-1.69-7.82-4.16-11.09-7.44-3.28-3.27-5.78-6.99-7.51-11.16-1.73-4.16-2.6-8.54-2.6-13.13s.86-8.94,2.6-13.06c1.56-3.72,3.77-7.1,6.6-10.14h-20.47c-.55,1.09-1.08,2.19-1.57,3.33-2.67,6.23-4,12.84-4,19.86s1.33,13.64,4,19.86c2.67,6.23,6.32,11.65,10.95,16.28,4.63,4.63,10.06,8.28,16.29,10.95,6.22,2.67,12.85,4,19.87,4s13.64-1.33,19.87-4c6.22-2.67,11.65-6.32,16.29-10.95,4.63-4.63,8.28-10.06,10.95-16.28,2.67-6.22,4-12.85,4-19.86s-1.33-13.64-4-19.86c-2.67-6.22-6.32-11.65-10.95-16.29Z"/>
  </g>
  <g id="M">
    <polygon class="cls-1" points="107.06 0 87.94 0 55.82 49.64 23.84 0 4.71 0 4.71 90.72 0 90.72 0 102.23 4.71 102.23 22.23 102.23 26.95 102.23 26.95 90.72 22.23 90.72 22.23 29.78 55.82 81.91 89.54 29.78 89.54 90.72 89.5 90.72 84.79 90.72 84.79 102.23 89.5 102.23 107.02 102.23 111.74 102.23 111.74 90.72 107.06 90.72 107.06 0"/>
  </g>
</svg>