<?xml version="1.0" encoding="UTF-8"?>
<svg xmlns="http://www.w3.org/2000/svg" viewBox="0 0 1326.59 271.24">
  <defs>
    <style>
      .cls-1 {
        fill: #cf8827;
      }
    </style>
  </defs>
  <g id="O2">
    <path class="cls-1" d="M1315.98,82.88c-7.08-16.51-16.76-30.92-29.05-43.21-12.29-12.29-26.7-21.97-43.21-29.05-16.52-7.08-34.08-10.62-52.71-10.62s-36.2,3.54-52.71,10.62c-16.52,7.07-30.92,16.76-43.21,29.05-1.64,1.64-3.22,3.32-4.77,5.03h99.59v.03c.36,0,.72-.03,1.09-.03,12.16,0,23.78,2.3,34.83,6.89,11.05,4.6,20.92,11.24,29.61,19.93,8.69,8.7,15.27,18.5,19.74,29.43,4.47,10.93,6.7,22.48,6.7,34.64s-2.23,23.78-6.7,34.82c-4.47,11.06-11.05,20.92-19.74,29.61-8.7,8.7-18.56,15.27-29.61,19.74-11.05,4.46-22.66,6.71-34.83,6.71s-23.72-2.24-34.64-6.71c-10.93-4.47-20.74-11.05-29.42-19.74-8.7-8.69-15.34-18.56-19.93-29.61-4.6-11.05-6.89-22.65-6.89-34.82s2.29-23.71,6.89-34.64c4.15-9.88,9.99-18.83,17.5-26.89h-54.3c-1.47,2.88-2.88,5.81-4.18,8.83-7.07,16.52-10.61,34.08-10.61,52.71s3.54,36.2,10.61,52.71c7.08,16.52,16.76,30.92,29.05,43.2,12.29,12.29,26.69,21.98,43.21,29.05,16.51,7.08,34.08,10.62,52.71,10.62s36.19-3.53,52.71-10.62c16.51-7.07,30.92-16.76,43.21-29.05,12.29-12.29,21.98-26.69,29.05-43.2,7.08-16.51,10.62-34.08,10.62-52.71s-3.54-36.19-10.62-52.71Z"/>
  </g>
  <g id="R2">
    <polygon class="cls-1" points="809 74.05 762.5 74.05 762.5 240.7 762.33 240.7 749.82 240.7 749.82 271.24 762.33 271.24 808.81 271.24 821.31 271.24 821.31 240.7 809 240.7 809 74.05"/>
  </g>
  <g id="R1">
    <path class="cls-1" d="M941.6,240.7l-35.77-55.52c8.26-3.89,15.81-8.87,22.66-14.91,6.84-6.08,12.66-12.86,17.45-20.34,4.76-7.49,8.52-15.68,11.22-24.62,2.73-8.9,4.08-18.26,4.08-28.09,0-13.4-2.6-26-7.75-37.76-5.18-11.73-12.15-22.02-20.92-30.78-8.77-8.78-19.06-15.75-30.79-20.92C890.02,2.57,877.42,0,863.99,0h-101.49V44.7h101.49c13.95,0,25.97,6.82,36.03,16.88,4.66,4.66,8.26,10.1,10.86,16.3,2.57,6.2,3.86,12.66,3.86,19.35s-1.28,13.17-3.86,19.38c-2.6,6.2-6.2,11.77-10.86,16.65-10.06,10.09-22.08,15.1-36.03,15.1h-20.12l-18.99,46.5h31.75l36.2,56.17v20.22h71.5v-30.54h-22.73Z"/>
  </g>
  <g id="O1">
    <path class="cls-1" d="M619.05,39.67c-12.29-12.29-26.7-21.97-43.21-29.05-16.52-7.08-34.08-10.62-52.71-10.62s-36.19,3.54-52.71,10.62c-16.52,7.07-30.91,16.76-43.21,29.05-1.63,1.64-3.22,3.32-4.76,5.03h99.59v.03c.36,0,.72-.03,1.09-.03,12.16,0,23.77,2.3,34.83,6.89,11.05,4.6,20.91,11.24,29.61,19.93,8.69,8.7,15.27,18.5,19.74,29.43,4.47,10.93,6.7,22.48,6.7,34.64s-2.24,23.78-6.7,34.82c-4.47,11.06-11.05,20.92-19.74,29.61-8.7,8.7-18.56,15.27-29.61,19.74-11.05,4.46-22.66,6.71-34.83,6.71s-23.72-2.24-34.64-6.71c-10.93-4.47-20.73-11.05-29.43-19.74-8.7-8.69-15.34-18.56-19.93-29.61-4.6-11.05-6.89-22.65-6.89-34.82s2.29-23.71,6.89-34.64c4.15-9.88,10-18.83,17.5-26.89h-54.3c-1.47,2.88-2.88,5.81-4.17,8.83-7.08,16.52-10.62,34.08-10.62,52.71s3.54,36.2,10.62,52.71c7.07,16.52,16.76,30.92,29.05,43.2,12.29,12.29,26.69,21.98,43.21,29.05,16.51,7.08,34.08,10.62,52.71,10.62s36.19-3.53,52.71-10.62c16.51-7.07,30.91-16.76,43.21-29.05,12.29-12.29,21.98-26.69,29.05-43.2,7.08-16.51,10.62-34.08,10.62-52.71s-3.54-36.19-10.62-52.71c-7.08-16.51-16.76-30.92-29.05-43.21Z"/>
  </g>
  <g id="M">
    <polygon class="cls-1" points="284.06 0 233.31 0 148.09 131.72 63.26 0 12.51 0 12.51 240.7 0 240.7 0 271.24 12.51 271.24 58.99 271.24 71.5 271.24 71.5 240.7 58.99 240.7 58.99 79.02 148.09 217.32 237.57 79.02 237.57 240.7 237.47 240.7 224.96 240.7 224.96 271.24 237.47 271.24 283.95 271.24 296.46 271.24 296.46 240.7 284.06 240.7 284.06 0"/>
  </g>
</svg>